# xmcd
#
# Track frame offsets:
# 150
# 13461
# 23747
# 37969
# 53232
# 68789
# 83098
# 98386
# 115718
# 131167
# 141375
# 159788
# 170431
# 185993
# 200541
# 215972
# 228568
# 246334
# 259428
# 268094
#
# Disc length: 3787 seconds
#
#
# Revision: 1
# Processed by: cddbd v1.5.1PL0 Copyright (c) Steve Scherf et al.
# Submitted via: FreeRIP 2.80 
#
DISCID=2b0ec914
DTITLE=Sulo - Ei tule et minna - Kutse tantsule 23
DYEAR=1900
DGENRE=
TTITLE0=Väike neiu
TTITLE1=Quando
TTITLE2=Naerata
TTITLE3=Ausus
TTITLE4=Alice
TTITLE5=Buenos Dias Argentina
TTITLE6=Amarillo
TTITLE7=California Blue
TTITLE8=Kallim
TTITLE9=Korraks vaid
TTITLE10=Lola
TTITLE11=Miks vaatad täis igatsust teele
TTITLE12=Mamie Blue
TTITLE13=Mustlase elu
TTITLE14=Pögenevad unenäod
TTITLE15=Rannapiiga
TTITLE16=Valged roosid
TTITLE17=Vanaisa kell
TTITLE18=Ütle miks
TTITLE19=Ei tule et minna
EXTD=
EXTT0=
EXTT1=
EXTT2=
EXTT3=
EXTT4=
EXTT5=
EXTT6=
EXTT7=
EXTT8=
EXTT9=
EXTT10=
EXTT11=
EXTT12=
EXTT13=
EXTT14=
EXTT15=
EXTT16=
EXTT17=
EXTT18=
EXTT19=
PLAYORDER=
